<?xml version="1.0" encoding="iso-8859-1"?>
<!-- Generator: Adobe Illustrator 19.0.0, SVG Export Plug-In . SVG Version: 6.00 Build 0)  -->
<svg version="1.1" id="Capa_1" xmlns="http://www.w3.org/2000/svg" xmlns:xlink="http://www.w3.org/1999/xlink" x="0px" y="0px"
	 viewBox="0 0 512.011 512.011" style="enable-background:new 0 0 512.011 512.011;" xml:space="preserve">
<path style="fill:#B34B4D;" d="M511.367,216.35c0,0,17.636-185.36-132.232-176.533c0,0-105.788,0-141.05,88.267
	c0,0-17.636,61.787-158.686,61.787H61.763c-34.106,0-61.707,27.636-61.707,61.787c0,0-8.827,185.36,196.579,218.063
	c35.21,5.605,92.557,2.207,127.36-5.534c11.784-2.622,24.644-5.94,37.955-10.124C452.229,425.65,512.003,348.24,512.003,253.6
	v-37.24h-0.636V216.35z"/>
<path style="fill:#F76363;" d="M379.134,39.817c0,0-105.788,0-141.05,88.267c0,0-17.636,61.787-158.686,61.787H61.771
	c-34.106,0-61.707,27.636-61.707,61.787c0,0,0,158.88,220.393,150.053c0,0,273.283-8.827,290.918-185.36
	C511.367,216.35,528.994,30.99,379.134,39.817z"/>
<circle style="fill:#FC9595;" cx="388.46" cy="154.609" r="79.44"/>
<path style="fill:#FFD7D7;" d="M56.325,238.417c-7.723,15.447-7.723,39.72,23.17,75.027c0,0,52.96,52.96,141.227,52.96
	c0,0,88.267,8.827,88.267-97.093c0,0,0.3-2.666,0.344-7.017c0.521-45.078-45.634-76.677-87.269-59.395
	c-25.13,10.433-68.363,22.305-126.389,15.72C79.804,216.809,63.475,224.118,56.325,238.417z"/>
<path style="fill:#B34B4D;" d="M220.722,401.71C0.055,410.537,0.055,251.657,0.055,251.657s-8.827,185.36,196.579,218.063
	c35.21,5.605,92.557,2.207,127.36-5.534c11.784-2.622,24.644-5.94,37.955-10.124c90.279-28.413,150.053-105.823,150.053-200.463
	v-37.24C494.349,392.884,220.722,401.71,220.722,401.71z"/>
<g>
	<path style="fill:#FC9595;" d="M477.649,300.062c-12.949-13.399-32.279-21.934-53.913-21.934
		c-38.996,0-70.613,27.663-70.613,61.787c0,12.393,4.21,23.903,11.386,33.577C406.665,358.424,449.033,335.369,477.649,300.062z"/>
	<circle style="fill:#FC9595;" cx="247.24" cy="260.529" r="26.48"/>
</g>
<g>
	<path style="fill:#FFD7D7;" d="M414.909,163.39c-2.26,0-4.519-0.865-6.24-2.586l-26.48-26.48c-3.451-3.451-3.451-9.03,0-12.481
		c3.451-3.451,9.03-3.451,12.481,0l26.48,26.48c3.451,3.451,3.451,9.03,0,12.481C419.428,162.525,417.169,163.39,414.909,163.39z"/>
	<path style="fill:#FFD7D7;" d="M397.247,198.697c-1.324,0-2.674-0.3-3.937-0.927c-4.36-2.18-6.126-7.485-3.946-11.845
		l17.653-35.307c2.18-4.36,7.476-6.126,11.845-3.946c4.36,2.18,6.126,7.485,3.946,11.845l-17.653,35.307
		C403.611,196.905,400.486,198.697,397.247,198.697z"/>
	<path style="fill:#FFD7D7;" d="M467.869,154.563c0-2.983-0.194-5.923-0.521-8.827h-52.439c-4.872,0-8.827,3.946-8.827,8.827
		s3.954,8.827,8.827,8.827h52.439C467.675,160.486,467.869,157.547,467.869,154.563z"/>
	<path style="fill:#FFD7D7;" d="M347.826,156.329l-33.947,25.456c2.057,5.631,4.696,10.972,7.909,15.923
		c0.3-0.177,0.627-0.265,0.909-0.477l35.722-26.789c3.901-2.922,4.687-8.456,1.765-12.349
		C357.271,154.193,351.736,153.407,347.826,156.329z"/>
</g>
<g>
	<path style="fill:#FC9595;" d="M150.109,260.483c-37.143,0-65.591,27.01-69.96,53.587c1.712,1.624,6.885,6.293,15.111,12.207
		c1.112-1.474,1.889-3.222,1.889-5.208c0-19.445,23.62-42.924,52.96-42.924c4.872,0,8.827-3.946,8.827-8.827
		C158.935,264.438,154.99,260.483,150.109,260.483z"/>
	<path style="fill:#FC9595;" d="M211.895,304.617c-4.872,0-8.827,3.946-8.827,8.827c0,32.747-33.382,35.289-43.621,35.289
		c-3.919,0-7.132,2.595-8.279,6.126c9.806,3.336,20.557,6.143,32.129,8.182c23.302-7.07,37.425-24.979,37.425-49.597
		C220.722,308.562,216.777,304.617,211.895,304.617z"/>
</g>
<g>
</g>
<g>
</g>
<g>
</g>
<g>
</g>
<g>
</g>
<g>
</g>
<g>
</g>
<g>
</g>
<g>
</g>
<g>
</g>
<g>
</g>
<g>
</g>
<g>
</g>
<g>
</g>
<g>
</g>
</svg>
